<?xml version="1.0" encoding="UTF-8"?>
<svg width="1513px" height="144px" viewBox="0 0 1513 144" version="1.1" xmlns="http://www.w3.org/2000/svg" xmlns:xlink="http://www.w3.org/1999/xlink">
    <title>logo</title>
    <g id="Symbols" stroke="none" stroke-width="1" fill="none" fill-rule="evenodd">
        <g id="logo" transform="translate(-56.056292, -0.130989)">
            <g id="Group-38" transform="translate(1377.413945, 34.754732)"></g>
            <g id="Group-41" transform="translate(1477.169247, 34.209821)"></g>
            <g id="Group" fill="#172327" transform="translate(56.870067, 0.000000)">
                <path d="M113.207987,30.8859567 C110.43154,41.8384236 101.102677,49.6968186 90.9964092,54.5980476 C83.2223568,58.4040298 74.893015,61.1147654 66.9523758,64.7016983 C55.7077643,69.7945954 45.2683225,76.2839321 41.3535319,88.4411703 C38.5770846,96.6555205 40.9925937,105.828212 44.824091,109.825862 C44.824091,109.825862 45.1295002,109.825862 45.1572646,109.661575 C45.1850291,109.497288 45.3516159,108.621091 45.4626738,108.100848 C45.9221027,105.447471 46.6666852,102.849874 47.6838317,100.351978 C48.92361,97.4061198 50.5678266,94.6421701 52.5703789,92.1376279 C55.0611462,89.1077843 58.0790421,86.5395093 61.4827746,84.5530446 C65.8281823,82.0981347 70.6036604,80.4725505 75.5593623,79.7613403 C76.6144123,79.5970533 77.6972267,79.4601475 78.7522767,79.378004 C78.8158267,79.370106 78.8797402,79.3896482 78.9276137,79.4316149 C78.9754872,79.4735816 79.0026596,79.533887 79.002157,79.5970533 C79.002157,82.9923181 77.1697018,119.299746 22.0849878,122.421199 C23.4949998,113.617071 25.8018717,104.975649 28.970577,96.6281394 C34.8288808,81.4863539 47.1285422,70.3969811 61.3161878,63.1135906 L62.6488825,62.4564426 C75.9758294,55.9123436 91.3573474,52.6539847 102.574194,42.550334 C107.682857,37.9502979 108.821201,31.5978671 110.098366,25.4097232 C111.671902,17.567921 112.370173,9.57979501 112.180702,1.5881077 C106.627807,13.4441531 95.5220183,21.6585033 83.7776463,27.162118 C75.2416383,31.1701193 66.2181181,34.0781509 56.9294011,35.8145668 C48.4936169,37.6343012 40.4302348,40.846601 33.079719,45.3158319 C27.4561207,48.528819 22.3082942,52.490717 17.7814945,57.0897338 C10.2010293,64.9575149 4.85733701,74.656811 2.28891865,85.2101926 C-1.28458563,100.639402 -0.497107225,116.739787 4.56560542,131.758177 C4.56560542,132.05937 5.59289091,135.043917 6.09265142,136.714168 C6.59241193,138.384419 7.28652375,141.724922 7.36981717,142.190402 C7.45311059,142.655882 7.36981717,142.190402 7.36981717,142.190402 L7.36981717,141.943971 C7.35235336,142.071243 7.43693293,142.190403 7.56416848,142.217783 C19.2021676,143.592445 30.964934,143.592445 42.6029331,142.217783 L42.6029331,142.217783 C48.9657144,141.054452 55.2167125,139.359847 61.2884233,137.152267 L62.3434733,136.714168 C105.489464,121.928338 113.957628,49.9980115 113.735512,30.9681002 C113.679677,30.884307 113.590595,30.8276238 113.490169,30.8119859 C113.389742,30.796348 113.287286,30.8232059 113.207987,30.8859567 Z" id="Path"></path>
                <path d="M18.3923129,95.8340855 C24.3415945,82.3034556 34.4777259,70.9750724 47.350658,63.4695458 C54.7611809,59.2717759 62.7744383,56.2067374 71.1170467,54.3789982 C79.2520372,52.4896977 87.7757304,51.6408815 95.327667,47.6979934 C99.6629674,45.5458258 103.356204,42.3187557 106.044753,38.3336342 C113.402339,27.3811673 112.597169,12.5679558 112.513876,0 C112.513876,0 112.513876,0 112.513876,0 C111.791999,3.39526474 106.960981,7.96791968 105.128526,9.93936373 C96.2732263,19.0923061 85.1981973,25.8679855 72.9495019,29.626423 C59.3726747,33.7609793 47.4339514,35.841948 35.9394597,42.0300918 C29.2273432,45.6234034 23.1359563,50.2443969 17.8925524,55.7206754 C8.60646637,65.6894699 2.64640862,78.2287243 0.817401595,91.6447669 C-1.38464456,108.771014 0.880166534,126.168154 7.39758165,142.190402 C7.76353443,134.813017 8.79489284,127.482423 10.4794381,120.285468 C12.3362563,111.908997 14.9854785,103.7227 18.3923129,95.8340855 L18.3923129,95.8340855 Z" id="Path"></path>
            </g>
            <g id="NZYF_Corporate_Logo" transform="translate(197.452219, 0.795767)" fill="#172327">
                <path d="M29.5278932,58.1823614 L29.5278932,140.093431 C19.712377,141.118676 9.81551617,141.118676 0,140.093431 L0,0.607189485 C10.3794844,-0.202229384 20.8069737,-0.202229384 31.1864581,0.607189485 L62.1553995,84.5957135 L62.1553995,0.607189485 C71.9902018,-0.202396495 81.8756799,-0.202396495 91.7104822,0.607189485 L91.7104822,140.093431 C81.0506742,140.929841 70.340955,140.929841 59.6811469,140.093431 L29.5278932,58.1823614 Z M106.284102,140.093431 C105.142242,132.581536 105.142242,124.942184 106.284102,117.430289 L144.838938,36.976136 L107.779529,36.976136 C107.018283,29.5668646 107.018283,22.0999846 107.779529,14.6907133 L174.965002,14.6907133 C175.699175,22.218516 175.699175,29.7990723 174.965002,37.3268751 L136.682062,117.430289 L175.971017,117.430289 C176.922688,124.955158 176.922688,132.568562 175.971017,140.093431 L106.284102,140.093431 Z M254.113895,81.7088609 L220.616322,0.607189485 C230.995806,-0.202229384 241.423295,-0.202229384 251.80278,0.607189485 L269.476012,56.1049068 L287.992122,0.607189485 C298.171902,-0.202266087 308.40063,-0.202266087 318.580409,0.607189485 L284.457476,81.7088609 L284.457476,140.093431 C274.360512,140.929887 264.210859,140.929887 254.113895,140.093431 L254.113895,81.7088609 Z M403.14003,108.149193 C403.14003,133.780127 386.663139,142.332765 361.974993,142.332765 C337.286846,142.332765 320.782766,133.780127 320.782766,108.149193 L320.782766,45.9334729 C320.782766,20.4913984 337.096519,11.9387603 361.974993,11.9387603 C386.853466,11.9387603 403.14003,20.4913984 403.14003,45.9334729 L403.14003,108.149193 Z M375.950441,50.7628805 C375.950441,36.4635173 369.39775,34.5749221 362.110941,34.5749221 C354.824131,34.5749221 348.053923,36.4365374 348.053923,50.7628805 L348.053923,103.130926 C348.053923,117.430289 354.796941,119.318884 362.110941,119.318884 C369.42494,119.318884 375.950441,117.457269 375.950441,103.130926 L375.950441,50.7628805 Z M474.621458,14.5558136 C483.532421,13.799109 492.49224,13.799109 501.403203,14.5558136 L501.403203,108.149193 C501.403203,133.591268 485.497294,142.332765 460.972285,142.332765 C436.447276,142.332765 419.780058,133.591268 419.780058,108.149193 L419.780058,14.5558136 C428.827575,13.807693 437.92213,13.807693 446.969647,14.5558136 L446.969647,103.130926 C446.969647,117.24143 453.3592,119.318884 460.836337,119.318884 C468.313474,119.318884 474.431131,117.268409 474.431131,103.130926 L474.621458,14.5558136 Z M546.864195,66.3572804 L546.864195,140.093431 C538.024507,141.011023 529.112465,141.011023 520.272777,140.093431 L520.272777,14.5558136 C529.619581,13.8003493 539.012818,13.8003493 548.359622,14.5558136 L576.25614,90.0996194 L576.25614,14.5558136 C585.094512,13.800213 593.981996,13.800213 602.820368,14.5558136 L602.820368,140.093431 C593.228456,140.84871 583.591316,140.84871 573.999404,140.093431 L546.864195,66.3572804 Z M672.996696,94.2275487 L663.833805,94.2275487 C662.814855,86.7702373 662.814855,79.210578 663.833805,71.7532665 L697.331378,71.7532665 L697.331378,136.801879 C687.965034,140.215077 678.103587,142.101091 668.12976,142.386725 C641.946186,142.386725 624.626418,134.022946 624.626418,107.636574 L624.626418,46.8507906 C624.626418,20.4913984 641.864617,11.9387603 668.12976,11.9387603 C677.041542,11.982473 685.912087,13.1427968 694.53085,15.3921915 C695.455397,22.602742 695.455397,29.9004851 694.53085,37.1110356 C687.349227,35.4962255 680.006902,34.6907247 672.643232,34.7098218 C661.033277,34.7098218 651.843196,36.0048585 651.843196,52.5435559 L651.843196,102.753207 C651.843196,118.941165 661.033277,120.047342 672.643232,120.047342 L672.996696,120.047342 L672.996696,94.2275487 Z M878.577175,14.5558136 L912.836057,140.093431 C903.434785,140.848895 893.987347,140.848895 884.586075,140.093431 L878.767503,113.35632 L850.680658,113.35632 L844.889275,140.093431 C835.615098,140.848896 826.294124,140.848896 817.019947,140.093431 L851.251639,14.5558136 C860.34424,13.8003059 869.484574,13.8003059 878.577175,14.5558136 Z M818.270668,0.607189485 C819.296878,8.66914092 819.296878,16.8271756 818.270668,24.889127 L782.081326,24.889127 L782.081326,59.4234382 L813.893144,59.4234382 C814.926251,67.43078 814.926251,75.5361545 813.893144,83.5434962 L782.081326,83.5434962 L782.081326,140.201351 C771.694903,140.41719 762.124168,140.41719 751.928072,140.201351 L751.928072,0.607189485 L818.270668,0.607189485 Z M864.737675,48.9012653 L855.384456,92.0691543 L874.090893,92.0691543 L864.737675,48.9012653 Z M926.865885,14.5558136 L959.629339,14.5558136 C985.649775,14.5558136 1001.93634,23.0814717 1001.93634,46.9317304 L1001.93634,62.9038493 C1001.93634,76.0970354 996.498421,84.2719543 987.145203,89.1013619 C994.594792,105.619888 1000.90816,122.620187 1006.04197,139.985511 C996.94936,140.740893 987.809037,140.740893 978.71643,139.985511 C974.191647,124.419042 968.818324,109.107873 962.620194,94.119629 L954.001094,94.119629 L954.001094,139.985511 C944.954015,140.743998 935.858585,140.743998 926.811506,139.985511 L926.865885,14.5558136 Z M974.77394,52.6244957 C974.77394,39.1345304 967.840595,37.1919754 959.248685,37.1919754 L954.001094,37.1919754 L954.001094,72.6705842 L959.248685,72.6705842 C967.840595,72.6705842 974.77394,70.808969 974.77394,57.8046424 L974.77394,52.6244957 Z M1093.26617,65.6288223 L1076.02797,106.665297 C1071.1908,107.420727 1066.26432,107.420727 1061.42716,106.665297 L1044.21615,65.6288223 L1044.21615,140.093431 C1035.24157,140.848872 1026.21865,140.848872 1017.24408,140.093431 L1017.24408,14.5558136 C1026.84506,13.8003507 1036.49125,13.8003507 1046.09223,14.5558136 L1069.09462,72.0500458 L1091.74355,14.5018538 C1101.21744,13.7463515 1110.73716,13.7463515 1120.21105,14.5018538 L1120.21105,140.093431 C1111.24556,140.848897 1102.23166,140.848897 1093.26617,140.093431 L1093.26617,65.6288223 Z M1136.66075,140.093431 L1136.66075,14.5558136 L1196.47785,14.5558136 C1197.40224,21.8295772 1197.40224,29.1897537 1196.47785,36.4635173 L1163.85034,36.4635173 L1163.85034,65.9795614 L1194.54738,65.9795614 C1195.4742,73.1448196 1195.4742,80.3982476 1194.54738,87.5635059 L1163.79596,87.5635059 L1163.79596,118.185727 L1196.42347,118.185727 C1197.34786,125.459491 1197.34786,132.819667 1196.42347,140.093431 L1136.66075,140.093431 Z M1213.38977,14.5558136 L1246.15322,14.5558136 C1272.17366,14.5558136 1288.43303,23.0814717 1288.43303,46.9317304 L1288.43303,62.9038493 C1288.43303,76.0970354 1282.99512,84.2719543 1273.66909,89.1013619 C1281.16493,105.61644 1287.52375,122.616805 1292.7018,139.985511 C1283.65427,140.733382 1274.55974,140.733382 1265.51221,139.985511 C1260.98743,124.419042 1255.6141,109.107873 1249.41597,94.119629 L1240.57936,94.119629 L1240.57936,139.985511 C1231.53228,140.743998 1222.43685,140.743998 1213.38977,139.985511 L1213.38977,14.5558136 Z M1261.29782,52.6244957 C1261.29782,39.1345304 1254.36448,37.1919754 1245.77257,37.1919754 L1240.57936,37.1919754 L1240.57936,72.6705842 L1245.82695,72.6705842 C1254.41886,72.6705842 1261.3522,70.808969 1261.3522,57.8046424 L1261.29782,52.6244957 Z M1370.7903,112.519942 C1370.7903,134.265766 1357.1955,142.440685 1334.30187,142.440685 C1324.43877,142.507489 1314.5933,141.603737 1304.90992,139.742692 C1303.79528,132.228796 1303.79528,124.593446 1304.90992,117.07955 C1313.41593,118.77879 1322.06389,119.682083 1330.74003,119.777543 C1337.83652,119.777543 1343.84542,118.293647 1343.84542,108.445972 L1343.84542,101.269311 C1343.84542,92.7436526 1342.15966,90.6931778 1335.22632,88.4538436 L1319.51073,83.0578575 C1308.6349,79.334627 1304.52927,71.5374271 1304.52927,54.081412 L1304.52927,41.8325235 C1304.52927,19.9248198 1319.70106,11.9387603 1341.77901,11.9387603 C1351.14918,11.8127586 1360.48631,13.0675068 1369.4852,15.6619908 C1370.59815,22.9228052 1370.59815,30.30888 1369.4852,37.5696944 C1361.74575,35.4487828 1353.75062,34.3867503 1345.7215,34.4130426 C1337.56462,34.4130426 1331.47415,35.7080792 1331.47415,45.7446134 L1331.47415,51.8690577 C1331.47415,59.4773981 1333.54056,61.9055919 1340.47391,64.4956652 L1356.9508,70.4582299 C1367.82663,74.5321994 1370.7903,81.0343627 1370.7903,99.0569563 L1370.7903,112.519942 Z" id="Combined-Shape"></path>
            </g>
        </g>
    </g>
</svg>